<svg xmlns="http://www.w3.org/2000/svg" viewBox="0 0 200 200" width="200" height="200">
	<path style="fill: #3eaf7c;" d="M89.9,44.6L54.5,65c-4.7,2.7-7.6,7.7-7.6,13.1v43.8c0,5.4,2.9,10.4,7.6,13.1l35.4,20.4 c6.2,3.6,13.9,3.6,20.2,0l35.4-20.4c4.7-2.7,7.6-7.7,7.6-13.1V78.1c0-5.4-2.9-10.4-7.6-13.1l-35.4-20.4C103.8,41,96.2,41,89.9,44.6 L89.9,44.6z M105.5,49l38.7,22.3c1.7,1,2.8,2.8,2.8,4.8v47.8c0,2-1,3.8-2.8,4.8L105.5,151c-3.4,2-7.6,2-11,0l-38.7-22.3 c-1.7-1-2.8-2.8-2.8-4.8V76.1c0-2,1-3.8,2.8-4.8L94.5,49C97.9,47,102.1,47,105.5,49L105.5,49z M105,53.3 M86.1,124.2c-0.9-0.6-1.8-1.2-2.6-1.8c-0.5,0.7-1.1,1.5-1.6,2.2c0.9,0.7,1.8,1.3,2.8,1.9 C85.1,125.8,85.6,125,86.1,124.2z M87.8,121.5c0.5-0.8,1-1.5,1.5-2.3c-0.8-0.5-1.6-1-2.3-1.6c-0.5,0.7-1.1,1.5-1.6,2.2 C86.2,120.4,87,120.9,87.8,121.5z M76.7,124.5c0.9,0.8,1.8,1.5,2.8,2.2c0.5-0.7,1.1-1.5,1.6-2.2c-0.9-0.7-1.8-1.4-2.6-2.1 C77.9,123.1,77.3,123.8,76.7,124.5z M84.7,119.6c-0.8-0.6-1.6-1.2-2.3-1.9c-0.6,0.7-1.2,1.4-1.8,2.1c0.8,0.7,1.6,1.3,2.5,2 C83.6,121.1,84.2,120.4,84.7,119.6z M79.9,119.7c-0.8-0.7-1.6-1.4-2.3-2.2c-0.6,0.7-1.3,1.3-1.9,2c0.8,0.8,1.6,1.6,2.5,2.3 C78.7,121,79.3,120.3,79.9,119.7z M81.8,113.2c-0.6,0.7-1.3,1.3-1.9,2c0.7,0.7,1.4,1.4,2.2,2c0.6-0.7,1.2-1.4,1.8-2.1 C83.2,114.5,82.5,113.9,81.8,113.2z M114.3,97.9c-1,1.7-2.2,3.3-3.6,4.7c-2,2-4.2,3.7-6.7,5c4.2,1.9,6.9,3.6,6.9,7.6c0,4.6-3.6,7.5-10.5,7.5 c-2.7,0-5.6-0.7-8.3-1.8c0,0,0,0,0,0c0,0,0,0,0,0l-1.5,2.6c-0.9-0.5-1.7-0.9-2.5-1.5c-0.5,0.8-1,1.6-1.4,2.3 c0.9,0.5,1.8,1,2.7,1.5l-1.6,2.9c-0.9-0.5-1.9-1-2.8-1.6c-0.5,0.8-1,1.6-1.4,2.3c1,0.6,4.2,2.3,4.9,2.5c3.8,1.4,7.7,2.1,11.7,2.1 c15.1,0,24.1-9.1,24.1-19.8C124.3,106,120.5,101.2,114.3,97.9z M92.4,102.6l6.3,2.7c3.4-1,6.5-2.9,9-5.6c1.1-1.1,2-2.3,2.8-3.6l-8-3.4c-5.6-2.2-10.3-3.9-10.3-8.6 c0-4.3,3.7-6.9,9.5-6.9c5.4,0,9.7,1.9,13.9,5.4l6.6-8.2C117,69,109.4,66,101.8,66c-13.3,0-22.7,8.2-22.7,19	C79.1,94.5,85.7,99.8,92.4,102.6z" />
</svg>