<svg xmlns="http://www.w3.org/2000/svg" viewBox="0 0 800 800">
	<path d="M60.72,171.09c30.17-30.67,70.01-46.26,119.49-46.76c31.66-1.97,58.88,0.25,81.64,6.68c15.33,4.95,35.87,18.81,61.6,41.56
		c24.24,21.28,41.06,46.76,50.47,76.45c13.85,51.95,0.49,85.61-40.08,100.94c-38.59,14.84-64.83,4.21-78.67-31.91
		c-9.9-29.19-21.52-49.97-34.88-62.34c-12.87-12.36-25.49-18.55-37.85-18.55c-19.3,0.5-35.14,8.42-47.5,23.75
		c-13.86,16.83-20.54,32.91-20.04,48.24c0,22.76,6.92,43.3,20.78,61.6c19.78,25.23,51.95,51.95,96.48,80.16
		c41.56,26.23,68.52,47.75,80.9,64.57c8.41,11.39,12.36,24.75,11.88,40.08c-1.98,39.09-18.55,70.51-49.73,94.26
		c-31.67,23.75-67.79,34.64-108.36,32.66c-27.22-1.48-63.34-19.54-108.36-54.18c-12.87-9.39-20.78-20.28-23.75-32.66
		c-1.48-8.91-0.5-18.06,2.97-27.46c4.94-9.39,14.35-14.1,28.2-14.1c10.88,0.5,21.77,4.71,32.66,12.62
		c27.21,15.84,51.45,23.51,72.73,23.01c17.31,2.48,31.17,0.5,41.56-5.94c11.38-7.42,17.81-16.33,19.3-26.72
		c-0.5-10.88-3.97-20.04-10.39-27.46c-6.93-7.42-21.78-18.06-44.53-31.91c-53.44-32.66-95.25-65.56-125.43-98.71
		c-24.25-26.22-36.62-60.36-37.11-102.42C14.2,244.56,29.54,202.76,60.72,171.09z M476.05,271.26c2.58-31.79,11.17-51.77,25.78-59.94c30.07-18.47,58.65-19.98,85.72-4.51
		c26.64,14.61,37.16,42.54,31.58,83.79c-2.58,13.32-8.6,29.87-18.05,49.63c-9.46,19.34-21.49,60.81-36.09,124.39
		c-16.76,72.19-22.35,113.66-16.76,124.39c5.58,8.6,14.39,16.11,26.43,22.56c12.46,6.45,24.7,10.53,36.74,12.25
		c15.47,1.72,39.53,1.29,72.19-1.29c39.96-1.71,66.6-2.36,79.92-1.93c14.6,1.72,21.91,6.67,21.91,14.82
		c0,16.76-5.38,27.07-16.11,30.94c-14.61,4.73-40.83,8.6-78.63,11.6c-45.55,6.88-78.21,9.02-97.97,6.45
		c-39.96-6.01-69.19-13.75-87.66-23.2c-17.19-7.73-31.16-19.55-41.89-35.45c-10.31-14.6-15.69-37.38-16.11-68.32
		c0-28.78,3.43-70.25,10.31-124.39C466.8,361.72,473.04,307.79,476.05,271.26z"/>
</svg>